<svg width="200" height="100" viewBox="0 0 200 100" fill="none" xmlns="http://www.w3.org/2000/svg">
<g clip-path="url(#clip0)">
<path d="M119.547 53.1539L140.966 71.7351C141.153 71.8977 141.379 72.0107 141.622 72.0637C141.864 72.1168 142.117 72.1082 142.355 72.0388C142.594 71.9694 142.811 71.8413 142.987 71.6663C143.164 71.4914 143.293 71.275 143.365 71.037L157.486 23.6279C157.562 23.3691 157.567 23.0944 157.499 22.8332C157.431 22.5721 157.293 22.3344 157.101 22.1455C156.908 21.9566 156.667 21.8236 156.405 21.7609C156.143 21.6981 155.868 21.7079 155.611 21.7892L95.7996 40.8916C95.509 40.9886 95.2555 41.1729 95.0736 41.4195C94.8917 41.666 94.7903 41.9626 94.7833 42.2689C94.7763 42.5752 94.8641 42.8761 95.0345 43.1307C95.205 43.3852 95.4499 43.5809 95.7357 43.6911L114.672 50.9971" stroke="#CC00F2" stroke-width="2" stroke-linecap="round" stroke-linejoin="round"/>
<path d="M146.446 31.6485L119.547 53.1534L119.187 68.2281C119.181 68.4163 119.235 68.6015 119.341 68.7576C119.446 68.9136 119.598 69.0326 119.774 69.0978C119.951 69.1629 120.144 69.171 120.325 69.1209C120.507 69.0707 120.668 68.9649 120.786 68.8182L124.422 64.3247" stroke="#CC00F2" stroke-width="2" stroke-linecap="round" stroke-linejoin="round"/>
</g>
<path d="M5.35205 74.4707C13.7796 62.6721 34.9328 45.1428 52.125 69.4142C91.5 91.5 101.5 83 113.5 67" stroke="#00B373" stroke-width="2" stroke-dasharray="3.79 3.79"/>
<defs>
<clipPath id="clip0">
<rect width="64.8672" height="58.3805" fill="white" transform="translate(97.9333 7.99115) rotate(11.0197)"/>
</clipPath>
</defs>
</svg>
