<svg width="200" height="100" viewBox="0 0 200 100" fill="none" xmlns="http://www.w3.org/2000/svg">
<circle cx="30.5" cy="53.5" r="18.75" stroke="#35D49B" stroke-width="1.5"/>
<circle cx="88.5" cy="53.5" r="18.75" stroke="#DC1FFF" stroke-width="1.5"/>
<circle cx="146.5" cy="53.5" r="18.75" stroke="#35D49B" stroke-width="1.5"/>
<path d="M74.7469 76.6507C74.7844 76.2382 74.4804 75.8734 74.0679 75.8359L67.3456 75.2248C66.9331 75.1872 66.5683 75.4913 66.5308 75.9038C66.4933 76.3163 66.7973 76.6811 67.2098 76.7186L73.1852 77.2618L72.642 83.2372C72.6045 83.6497 72.9085 84.0145 73.321 84.052C73.7335 84.0895 74.0983 83.7855 74.1358 83.373L74.7469 76.6507ZM45.3213 75.8544C44.919 75.9531 44.6729 76.3592 44.7716 76.7615L46.3796 83.3171C46.4783 83.7194 46.8844 83.9655 47.2867 83.8669C47.6889 83.7682 47.9351 83.3621 47.8364 82.9598L46.4071 77.1325L52.2343 75.7032C52.6366 75.6045 52.8828 75.1984 52.7841 74.7961C52.6854 74.3938 52.2793 74.1477 51.877 74.2464L45.3213 75.8544ZM73.5199 76.0066C69.7253 79.1688 58.7723 83.7496 45.8887 75.9414L45.1113 77.2242C58.6277 85.416 70.2747 80.6635 74.4801 77.159L73.5199 76.0066Z" fill="#DC1FFF"/>
<path d="M26.7531 29.4321C26.7156 29.8446 27.0196 30.2094 27.4321 30.2469L34.1544 30.8581C34.5669 30.8956 34.9317 30.5915 34.9692 30.179C35.0067 29.7665 34.7027 29.4017 34.2902 29.3642L28.3148 28.821L28.858 22.8456C28.8955 22.4331 28.5915 22.0683 28.179 22.0308C27.7665 21.9933 27.4017 22.2973 27.3642 22.7098L26.7531 29.4321ZM149.25 30.2072C149.64 30.0692 149.845 29.6407 149.707 29.2502L147.459 22.8857C147.321 22.4951 146.892 22.2904 146.502 22.4284C146.111 22.5664 145.906 22.9948 146.044 23.3854L148.043 29.0427L142.386 31.0414C141.995 31.1794 141.79 31.6078 141.928 31.9984C142.066 32.3889 142.495 32.5937 142.885 32.4557L149.25 30.2072ZM27.9801 30.0762C28.162 29.9246 28.5708 29.6682 29.246 29.321C29.905 28.9821 30.7751 28.5781 31.8437 28.1264C33.9802 27.2234 36.8895 26.1388 40.4527 25.012C47.5787 22.7584 57.3009 20.3417 68.659 18.8688C91.3813 15.9222 120.598 16.7588 148.677 30.1767L149.323 28.8233C120.902 15.2412 91.3687 14.4112 68.466 17.3812C57.0116 18.8667 47.2025 21.3041 40.0004 23.5818C36.3996 24.7206 33.4456 25.8209 31.2598 26.7447C30.1673 27.2065 29.2615 27.6263 28.56 27.9871C27.8745 28.3396 27.338 28.6587 27.0199 28.9239L27.9801 30.0762Z" fill="#DC1FFF"/>
<path d="M104.753 76.6507C104.716 76.2382 105.02 75.8734 105.432 75.8359L112.154 75.2248C112.567 75.1872 112.932 75.4913 112.969 75.9038C113.007 76.3163 112.703 76.6811 112.29 76.7186L106.315 77.2618L106.858 83.2372C106.896 83.6497 106.592 84.0145 106.179 84.052C105.767 84.0895 105.402 83.7855 105.364 83.373L104.753 76.6507ZM134.179 75.8544C134.581 75.9531 134.827 76.3592 134.728 76.7615L133.12 83.3171C133.022 83.7194 132.616 83.9655 132.213 83.8669C131.811 83.7682 131.565 83.3621 131.664 82.9598L133.093 77.1325L127.266 75.7032C126.863 75.6045 126.617 75.1984 126.716 74.7961C126.815 74.3938 127.221 74.1477 127.623 74.2464L134.179 75.8544ZM105.98 76.0066C109.775 79.1688 120.728 83.7496 133.611 75.9414L134.389 77.2242C120.872 85.416 109.225 80.6635 105.02 77.159L105.98 76.0066Z" fill="#DC1FFF"/>
</svg>
