<svg width="200" height="100" viewBox="0 0 200 100" fill="none" xmlns="http://www.w3.org/2000/svg">
<rect x="12" y="11" width="80" height="76" stroke="#35D49B" stroke-width="2"/>
<rect x="92" y="11" width="90" height="76" stroke="#35D49B" stroke-width="2" stroke-dasharray="4 4"/>
<path d="M29.5145 28.7083C29 28.7083 28.6068 28.87 28.3349 29.1934C28.0629 29.5168 27.9269 29.9615 27.9269 30.5275C27.9269 30.9317 27.949 31.3212 27.9931 31.6961C28.0372 32.0636 28.0813 32.4237 28.1254 32.7766C28.1768 33.122 28.2246 33.4638 28.2687 33.8019C28.3128 34.14 28.3349 34.4817 28.3349 34.8272C28.3349 35.0992 28.2944 35.3601 28.2136 35.61C28.1401 35.8599 28.0298 36.0877 27.8828 36.2935C27.7358 36.4993 27.5558 36.6794 27.3426 36.8337C27.1368 36.9881 26.9016 37.102 26.637 37.1755C26.9016 37.2564 27.1368 37.374 27.3426 37.5283C27.5558 37.6753 27.7358 37.8517 27.8828 38.0575C28.0298 38.2633 28.1401 38.4912 28.2136 38.7411C28.2944 38.991 28.3349 39.2519 28.3349 39.5238C28.3349 39.8693 28.3128 40.2111 28.2687 40.5492C28.2246 40.8873 28.1768 41.2327 28.1254 41.5855C28.0813 41.931 28.0372 42.2911 27.9931 42.666C27.949 43.0335 27.9269 43.4194 27.9269 43.8236C27.9269 44.3822 28.0629 44.8232 28.3349 45.1466C28.6068 45.47 29 45.6317 29.5145 45.6317H29.6138C29.6652 45.6317 29.724 45.6427 29.7902 45.6648C29.8563 45.6868 29.9188 45.7199 29.9776 45.764C30.0437 45.8081 30.0952 45.8669 30.1319 45.9404C30.176 46.0139 30.1981 46.0984 30.1981 46.194V47.3957H29.6138C28.9229 47.3957 28.3202 47.3038 27.8057 47.1201C27.2985 46.9437 26.8759 46.6901 26.5378 46.3594C26.207 46.036 25.9608 45.6427 25.7991 45.1797C25.6374 44.724 25.5566 44.2168 25.5566 43.6582C25.5566 43.2981 25.5786 42.9453 25.6227 42.5998C25.6742 42.247 25.7293 41.8979 25.7881 41.5524C25.8542 41.207 25.9094 40.8615 25.9535 40.5161C26.0049 40.1707 26.0306 39.8252 26.0306 39.4797C26.0306 39.0314 25.9241 38.6676 25.7109 38.3883C25.5051 38.1016 25.1707 37.9583 24.7076 37.9583V36.3817C25.1707 36.3817 25.5051 36.2421 25.7109 35.9628C25.9241 35.6761 26.0306 35.3086 26.0306 34.8603C26.0306 34.5148 26.0049 34.173 25.9535 33.8349C25.9094 33.4895 25.8542 33.144 25.7881 32.7986C25.7293 32.4531 25.6742 32.1077 25.6227 31.7623C25.5786 31.4094 25.5566 31.053 25.5566 30.6928C25.5566 30.1342 25.6374 29.6271 25.7991 29.1714C25.9608 28.7083 26.207 28.3114 26.5378 27.9807C26.8759 27.6499 27.2985 27.3964 27.8057 27.2199C28.3202 27.0362 28.9229 26.9443 29.6138 26.9443H30.1981V28.1571C30.1981 28.2526 30.176 28.3372 30.1319 28.4107C30.0952 28.4768 30.0437 28.5319 29.9776 28.576C29.9188 28.6201 29.8563 28.6532 29.7902 28.6752C29.724 28.6973 29.6652 28.7083 29.6138 28.7083H29.5145ZM42.2998 37.9583C41.8367 37.9583 41.4986 38.1016 41.2855 38.3883C41.0797 38.6676 40.9768 39.0314 40.9768 39.4797C40.9768 39.8252 40.9988 40.1707 41.0429 40.5161C41.0944 40.8615 41.1495 41.207 41.2083 41.5524C41.2744 41.8979 41.3296 42.247 41.3737 42.5998C41.4251 42.9453 41.4508 43.2981 41.4508 43.6582C41.4508 44.2168 41.37 44.724 41.2083 45.1797C41.0466 45.6427 40.7967 46.036 40.4586 46.3594C40.1278 46.6901 39.7052 46.9437 39.1907 47.1201C38.6836 47.3038 38.0845 47.3957 37.3936 47.3957H36.8093V46.194C36.8093 46.0984 36.8277 46.0139 36.8644 45.9404C36.9085 45.8669 36.96 45.8081 37.0188 45.764C37.0849 45.7199 37.1511 45.6868 37.2172 45.6648C37.2834 45.6427 37.3422 45.6317 37.3936 45.6317H37.4929C38.0074 45.6317 38.3969 45.47 38.6615 45.1466C38.9335 44.8232 39.0694 44.3822 39.0694 43.8236C39.0694 43.4194 39.0474 43.0335 39.0033 42.666C38.9665 42.2911 38.9224 41.931 38.871 41.5855C38.8195 41.2327 38.7718 40.8873 38.7277 40.5492C38.6909 40.2111 38.6725 39.8693 38.6725 39.5238C38.6725 39.2519 38.7093 38.991 38.7828 38.7411C38.8636 38.4912 38.9776 38.2633 39.1246 38.0575C39.2716 37.8517 39.448 37.6753 39.6538 37.5283C39.8669 37.374 40.1058 37.2564 40.3704 37.1755C40.1058 37.102 39.8669 36.9881 39.6538 36.8337C39.448 36.6794 39.2716 36.4993 39.1246 36.2935C38.9776 36.0877 38.8636 35.8599 38.7828 35.61C38.7093 35.3601 38.6725 35.0992 38.6725 34.8272C38.6725 34.4817 38.6909 34.14 38.7277 33.8019C38.7718 33.4638 38.8195 33.122 38.871 32.7766C38.9224 32.4237 38.9665 32.0636 39.0033 31.6961C39.0474 31.3212 39.0694 30.9317 39.0694 30.5275C39.0694 29.9615 38.9335 29.5168 38.6615 29.1934C38.3969 28.87 38.0074 28.7083 37.4929 28.7083H37.3936C37.3422 28.7083 37.2834 28.6973 37.2172 28.6752C37.1511 28.6532 37.0849 28.6201 37.0188 28.576C36.96 28.5319 36.9085 28.4768 36.8644 28.4107C36.8277 28.3372 36.8093 28.2526 36.8093 28.1571V26.9443H37.3936C38.0845 26.9443 38.6836 27.0362 39.1907 27.2199C39.7052 27.3964 40.1278 27.6499 40.4586 27.9807C40.7967 28.3114 41.0466 28.7083 41.2083 29.1714C41.37 29.6271 41.4508 30.1342 41.4508 30.6928C41.4508 31.053 41.4251 31.4094 41.3737 31.7623C41.3296 32.1077 41.2744 32.4531 41.2083 32.7986C41.1495 33.144 41.0944 33.4895 41.0429 33.8349C40.9988 34.173 40.9768 34.5148 40.9768 34.8603C40.9768 35.3086 41.0797 35.6761 41.2855 35.9628C41.4986 36.2421 41.8367 36.3817 42.2998 36.3817V37.9583Z" fill="#35D49B"/>
<line x1="25" y1="59" x2="75" y2="59" stroke="#35D49B" stroke-width="2"/>
<line x1="25" y1="69" x2="75" y2="69" stroke="#35D49B" stroke-width="2"/>
<path d="M121.345 49.7192C124.43 49.7192 126.931 47.2181 126.931 44.133C126.931 41.0478 124.43 38.5468 121.345 38.5468C118.26 38.5468 115.759 41.0478 115.759 44.133C115.759 47.2181 118.26 49.7192 121.345 49.7192Z" stroke="#DC1FFF" stroke-width="1.86207" stroke-linecap="round" stroke-linejoin="round"/>
<path d="M135.124 49.7191C134.876 50.2807 134.802 50.9037 134.912 51.5078C135.021 52.1118 135.309 52.6692 135.739 53.1081L135.85 53.2198C136.197 53.5657 136.471 53.9764 136.659 54.4285C136.846 54.8806 136.943 55.3652 136.943 55.8546C136.943 56.344 136.846 56.8286 136.659 57.2808C136.471 57.7329 136.197 58.1436 135.85 58.4895C135.504 58.8357 135.094 59.1104 134.642 59.2978C134.19 59.4852 133.705 59.5817 133.216 59.5817C132.726 59.5817 132.242 59.4852 131.789 59.2978C131.337 59.1104 130.927 58.8357 130.581 58.4895L130.469 58.3777C130.03 57.9485 129.473 57.6605 128.869 57.551C128.265 57.4414 127.642 57.5154 127.08 57.7633C126.529 57.9993 126.06 58.3912 125.729 58.8908C125.398 59.3904 125.22 59.9758 125.218 60.575V60.8915C125.218 61.8792 124.826 62.8265 124.127 63.5249C123.429 64.2233 122.482 64.6157 121.494 64.6157C120.506 64.6157 119.559 64.2233 118.86 63.5249C118.162 62.8265 117.77 61.8792 117.77 60.8915V60.7239C117.755 60.1076 117.556 59.5099 117.197 59.0084C116.838 58.507 116.337 58.125 115.759 57.9122C115.197 57.6643 114.574 57.5904 113.97 57.6999C113.366 57.8095 112.809 58.0974 112.37 58.5267L112.258 58.6384C111.912 58.9847 111.501 59.2594 111.049 59.4468C110.597 59.6342 110.113 59.7307 109.623 59.7307C109.134 59.7307 108.649 59.6342 108.197 59.4468C107.745 59.2594 107.334 58.9847 106.988 58.6384C106.642 58.2926 106.367 57.8818 106.18 57.4297C105.993 56.9776 105.896 56.493 105.896 56.0036C105.896 55.5142 105.993 55.0296 106.18 54.5775C106.367 54.1254 106.642 53.7146 106.988 53.3688L107.1 53.257C107.529 52.8182 107.817 52.2608 107.927 51.6568C108.036 51.0527 107.962 50.4297 107.714 49.8681C107.478 49.3173 107.087 48.8476 106.587 48.5168C106.087 48.1859 105.502 48.0084 104.903 48.006H104.586C103.599 48.006 102.651 47.6136 101.953 46.9152C101.254 46.2168 100.862 45.2696 100.862 44.2819C100.862 43.2942 101.254 42.3469 101.953 41.6485C102.651 40.9501 103.599 40.5577 104.586 40.5577H104.754C105.37 40.5433 105.968 40.3438 106.469 39.9852C106.971 39.6265 107.353 39.1253 107.566 38.5467C107.813 37.9851 107.887 37.3621 107.778 36.758C107.668 36.154 107.38 35.5966 106.951 35.1577L106.839 35.046C106.493 34.7001 106.218 34.2894 106.031 33.8373C105.844 33.3852 105.747 32.9006 105.747 32.4112C105.747 31.9218 105.844 31.4372 106.031 30.9851C106.218 30.533 106.493 30.1222 106.839 29.7764C107.185 29.4301 107.596 29.1554 108.048 28.968C108.5 28.7806 108.985 28.6841 109.474 28.6841C109.964 28.6841 110.448 28.7806 110.9 28.968C111.352 29.1554 111.763 29.4301 112.109 29.7764L112.221 29.8881C112.66 30.3174 113.217 30.6053 113.821 30.7148C114.425 30.8244 115.048 30.7504 115.61 30.5026H115.759C116.309 30.2665 116.779 29.8746 117.11 29.375C117.441 28.8754 117.618 28.29 117.621 27.6908V27.3743C117.621 26.3866 118.013 25.4393 118.711 24.7409C119.41 24.0425 120.357 23.6501 121.345 23.6501C122.333 23.6501 123.28 24.0425 123.978 24.7409C124.677 25.4393 125.069 26.3866 125.069 27.3743V27.5419C125.071 28.1411 125.249 28.7265 125.58 29.226C125.911 29.7256 126.38 30.1176 126.931 30.3536C127.493 30.6015 128.116 30.6754 128.72 30.5659C129.324 30.4564 129.881 30.1684 130.32 29.7391L130.432 29.6274C130.778 29.2811 131.188 29.0064 131.64 28.819C132.093 28.6316 132.577 28.5351 133.067 28.5351C133.556 28.5351 134.041 28.6316 134.493 28.819C134.945 29.0064 135.356 29.2811 135.701 29.6274C136.048 29.9733 136.322 30.384 136.51 30.8361C136.697 31.2882 136.794 31.7728 136.794 32.2622C136.794 32.7516 136.697 33.2362 136.51 33.6883C136.322 34.1404 136.048 34.5512 135.701 34.897L135.59 35.0088C135.16 35.4476 134.872 36.005 134.763 36.6091C134.653 37.2131 134.727 37.8361 134.975 38.3977V38.5467C135.211 39.0974 135.603 39.5671 136.103 39.898C136.602 40.2288 137.188 40.4064 137.787 40.4088H138.103C139.091 40.4088 140.038 40.8011 140.737 41.4995C141.435 42.198 141.828 43.1452 141.828 44.1329C141.828 45.1206 141.435 46.0679 140.737 46.7663C140.038 47.4647 139.091 47.857 138.103 47.857H137.936C137.337 47.8594 136.751 48.037 136.252 48.3678C135.752 48.6987 135.36 49.1684 135.124 49.7191V49.7191Z" stroke="#DC1FFF" stroke-width="1.86207" stroke-linecap="round" stroke-linejoin="round"/>
<g clip-path="url(#clip0)">
<path d="M154.862 68.0295C157.09 68.0295 158.897 66.2232 158.897 63.9951C158.897 61.7669 157.09 59.9606 154.862 59.9606C152.634 59.9606 150.828 61.7669 150.828 63.9951C150.828 66.2232 152.634 68.0295 154.862 68.0295Z" stroke="#DC1FFF" stroke-width="1.86207" stroke-linecap="round" stroke-linejoin="round"/>
<path d="M164.814 68.0296C164.635 68.4352 164.581 68.8852 164.66 69.3214C164.74 69.7577 164.948 70.1603 165.258 70.4772L165.338 70.5579C165.588 70.8077 165.787 71.1043 165.922 71.4308C166.057 71.7574 166.127 72.1074 166.127 72.4608C166.127 72.8143 166.057 73.1643 165.922 73.4908C165.787 73.8173 165.588 74.114 165.338 74.3638C165.088 74.6138 164.792 74.8122 164.465 74.9476C164.139 75.0829 163.789 75.1526 163.435 75.1526C163.082 75.1526 162.732 75.0829 162.405 74.9476C162.079 74.8122 161.782 74.6138 161.532 74.3638L161.452 74.2831C161.135 73.973 160.732 73.7651 160.296 73.686C159.86 73.6069 159.41 73.6603 159.004 73.8393C158.606 74.0097 158.267 74.2928 158.028 74.6536C157.789 75.0144 157.661 75.4372 157.659 75.87V76.0986C157.659 76.8119 157.376 77.496 156.872 78.0005C156.367 78.5049 155.683 78.7882 154.97 78.7882C154.256 78.7882 153.572 78.5049 153.068 78.0005C152.563 77.496 152.28 76.8119 152.28 76.0986V75.9775C152.27 75.5324 152.126 75.1007 151.866 74.7386C151.607 74.3764 151.245 74.1005 150.828 73.9469C150.422 73.7678 149.972 73.7144 149.536 73.7935C149.1 73.8726 148.697 74.0806 148.38 74.3906L148.299 74.4713C148.05 74.7214 147.753 74.9198 147.426 75.0552C147.1 75.1905 146.75 75.2602 146.396 75.2602C146.043 75.2602 145.693 75.1905 145.366 75.0552C145.04 74.9198 144.743 74.7214 144.493 74.4713C144.243 74.2215 144.045 73.9249 143.91 73.5984C143.774 73.2719 143.705 72.9219 143.705 72.5684C143.705 72.2149 143.774 71.8649 143.91 71.5384C144.045 71.2119 144.243 70.9153 144.493 70.6655L144.574 70.5848C144.884 70.2678 145.092 69.8653 145.171 69.429C145.25 68.9928 145.197 68.5428 145.018 68.1372C144.847 67.7394 144.564 67.4002 144.204 67.1613C143.843 66.9223 143.42 66.7941 142.987 66.7924H142.759C142.045 66.7924 141.361 66.509 140.857 66.0046C140.352 65.5002 140.069 64.8161 140.069 64.1027C140.069 63.3894 140.352 62.7053 140.857 62.2008C141.361 61.6964 142.045 61.4131 142.759 61.4131H142.88C143.325 61.4026 143.756 61.2586 144.119 60.9995C144.481 60.7405 144.757 60.3785 144.91 59.9606C145.089 59.555 145.143 59.1051 145.064 58.6688C144.985 58.2326 144.777 57.83 144.467 57.5131L144.386 57.4324C144.136 57.1826 143.937 56.8859 143.802 56.5594C143.667 56.2329 143.597 55.8829 143.597 55.5294C143.597 55.176 143.667 54.826 143.802 54.4995C143.937 54.1729 144.136 53.8763 144.386 53.6265C144.636 53.3764 144.932 53.178 145.259 53.0427C145.585 52.9073 145.935 52.8377 146.289 52.8377C146.642 52.8377 146.992 52.9073 147.319 53.0427C147.645 53.178 147.942 53.3764 148.192 53.6265L148.272 53.7072C148.589 54.0172 148.992 54.2252 149.428 54.3043C149.864 54.3834 150.314 54.33 150.72 54.151H150.828C151.225 53.9805 151.565 53.6975 151.804 53.3367C152.042 52.9758 152.171 52.553 152.172 52.1203V51.8917C152.172 51.1783 152.456 50.4942 152.96 49.9898C153.465 49.4854 154.149 49.202 154.862 49.202C155.575 49.202 156.26 49.4854 156.764 49.9898C157.268 50.4942 157.552 51.1783 157.552 51.8917V52.0127C157.553 52.4455 157.682 52.8683 157.921 53.2291C158.16 53.5899 158.499 53.8729 158.897 54.0434C159.302 54.2224 159.752 54.2758 160.188 54.1967C160.625 54.1176 161.027 53.9096 161.344 53.5996L161.425 53.5189C161.675 53.2688 161.971 53.0705 162.298 52.9351C162.624 52.7998 162.974 52.7301 163.328 52.7301C163.681 52.7301 164.031 52.7998 164.358 52.9351C164.684 53.0705 164.981 53.2688 165.231 53.5189C165.481 53.7687 165.679 54.0654 165.815 54.3919C165.95 54.7184 166.02 55.0684 166.02 55.4219C166.02 55.7753 165.95 56.1253 165.815 56.4518C165.679 56.7784 165.481 57.075 165.231 57.3248L165.15 57.4055C164.84 57.7224 164.632 58.125 164.553 58.5612C164.474 58.9975 164.527 59.4474 164.706 59.8531V59.9606C164.877 60.3584 165.16 60.6976 165.521 60.9366C165.881 61.1755 166.304 61.3037 166.737 61.3055H166.966C167.679 61.3055 168.363 61.5888 168.867 62.0933C169.372 62.5977 169.655 63.2818 169.655 63.9951C169.655 64.7085 169.372 65.3926 168.867 65.897C168.363 66.4014 167.679 66.6848 166.966 66.6848H166.844C166.412 66.6865 165.989 66.8147 165.628 67.0537C165.267 67.2926 164.984 67.6319 164.814 68.0296V68.0296Z" stroke="#DC1FFF" stroke-width="1.86207" stroke-linecap="round" stroke-linejoin="round"/>
</g>
<g clip-path="url(#clip1)">
<path d="M155.045 36.7391C156.789 36.2953 157.843 34.5216 157.399 32.7775C156.956 31.0334 155.182 29.9794 153.438 30.4232C151.694 30.867 150.64 32.6407 151.083 34.3848C151.527 36.1289 153.301 37.183 155.045 36.7391Z" stroke="#DC1FFF" stroke-width="1.86207" stroke-linecap="round" stroke-linejoin="round"/>
<path d="M162.835 34.757C162.775 35.1101 162.823 35.4729 162.972 35.7987C163.121 36.1244 163.364 36.3981 163.67 36.5844L163.749 36.6315C163.994 36.7772 164.209 36.9699 164.38 37.1985C164.551 37.4271 164.675 37.6872 164.745 37.9639C164.816 38.2405 164.831 38.5284 164.79 38.8109C164.749 39.0935 164.653 39.3652 164.507 39.6105C164.361 39.856 164.169 40.0704 163.94 40.2414C163.711 40.4124 163.451 40.5366 163.175 40.607C162.898 40.6774 162.61 40.6926 162.327 40.6517C162.045 40.6108 161.773 40.5146 161.528 40.3686L161.449 40.3215C161.139 40.142 160.782 40.0593 160.425 40.0843C160.068 40.1093 159.726 40.2407 159.444 40.4616C159.167 40.6743 158.958 40.9635 158.843 41.2935C158.728 41.6235 158.711 41.98 158.796 42.319L158.842 42.498C158.984 43.0564 158.898 43.6483 158.604 44.1436C158.31 44.6389 157.831 44.997 157.272 45.1391C156.714 45.2811 156.122 45.1956 155.627 44.9012C155.131 44.6069 154.773 44.1278 154.631 43.5695L154.607 43.4747C154.51 43.1284 154.311 42.8192 154.037 42.5873C153.762 42.3554 153.423 42.2116 153.066 42.1745C152.713 42.1152 152.35 42.163 152.024 42.3118C151.698 42.4607 151.425 42.7036 151.238 43.0094L151.191 43.0887C151.045 43.3342 150.853 43.5485 150.624 43.7195C150.396 43.8905 150.135 44.0148 149.859 44.0852C149.582 44.1556 149.294 44.1708 149.012 44.1298C148.729 44.0889 148.457 43.9927 148.212 43.8468C147.967 43.701 147.752 43.5084 147.581 43.2797C147.41 43.0511 147.286 42.791 147.216 42.5144C147.145 42.2377 147.13 41.9499 147.171 41.6673C147.212 41.3848 147.308 41.1131 147.454 40.8677L147.501 40.7885C147.681 40.4787 147.763 40.1221 147.738 39.7649C147.713 39.4077 147.582 39.0661 147.361 38.7843C147.148 38.5069 146.859 38.2977 146.529 38.1826C146.199 38.0674 145.843 38.0512 145.504 38.1361L145.325 38.1816C144.766 38.3237 144.174 38.2382 143.679 37.9438C143.184 37.6495 142.826 37.1704 142.684 36.6121C142.541 36.0537 142.627 35.4618 142.921 34.9665C143.216 34.4712 143.695 34.1131 144.253 33.971L144.348 33.9469C144.694 33.8501 145.003 33.6513 145.235 33.3764C145.467 33.1015 145.611 32.7632 145.648 32.4055C145.707 32.0524 145.66 31.6895 145.511 31.3638C145.362 31.0381 145.119 30.7644 144.813 30.5781L144.734 30.531C144.488 30.3853 144.274 30.1926 144.103 29.964C143.932 29.7354 143.808 29.4753 143.737 29.1986C143.667 28.9219 143.652 28.6341 143.693 28.3516C143.734 28.069 143.83 27.7973 143.976 27.552C144.122 27.3065 144.314 27.0921 144.543 26.9211C144.772 26.7501 145.032 26.6259 145.308 26.5555C145.585 26.4851 145.873 26.4699 146.155 26.5108C146.438 26.5517 146.71 26.6479 146.955 26.7939L147.034 26.841C147.344 27.0205 147.701 27.1031 148.058 27.0782C148.415 27.0532 148.757 26.9218 149.038 26.7008L149.123 26.6794C149.4 26.4667 149.609 26.1776 149.724 25.8476C149.839 25.5176 149.856 25.1611 149.771 24.822L149.725 24.6431C149.583 24.0847 149.669 23.4928 149.963 22.9975C150.257 22.5022 150.736 22.1441 151.295 22.002C151.853 21.8599 152.445 21.9455 152.94 22.2398C153.436 22.5342 153.794 23.0132 153.936 23.5716L153.96 23.6663C154.048 24.0047 154.232 24.3101 154.491 24.5449C154.75 24.7797 155.072 24.9337 155.417 24.988C155.77 25.0473 156.133 24.9995 156.459 24.8506C156.785 24.7018 157.058 24.4589 157.245 24.153L157.292 24.0738C157.437 23.8283 157.63 23.6139 157.859 23.443C158.087 23.272 158.347 23.1477 158.624 23.0773C158.901 23.0069 159.189 22.9917 159.471 23.0326C159.754 23.0735 160.025 23.1697 160.271 23.3157C160.516 23.4614 160.731 23.6541 160.902 23.8827C161.073 24.1114 161.197 24.3714 161.267 24.6481C161.338 24.9248 161.353 25.2126 161.312 25.4952C161.271 25.7777 161.175 26.0494 161.029 26.2948L160.982 26.374C160.802 26.6838 160.719 27.0404 160.744 27.3976C160.769 27.7548 160.901 28.0964 161.122 28.3782L161.143 28.4624C161.356 28.7398 161.645 28.949 161.975 29.0641C162.305 29.1793 162.662 29.1954 163.001 29.1106L163.18 29.0651C163.738 28.923 164.33 29.0085 164.825 29.3029C165.32 29.5972 165.679 30.0763 165.821 30.6346C165.963 31.193 165.877 31.7849 165.583 32.2802C165.288 32.7755 164.809 33.1336 164.251 33.2757L164.156 33.2998C163.818 33.3874 163.513 33.5719 163.278 33.8308C163.043 34.0897 162.889 34.4117 162.835 34.757V34.757Z" stroke="#DC1FFF" stroke-width="1.86207" stroke-linecap="round" stroke-linejoin="round"/>
</g>
<defs>
<clipPath id="clip0">
<rect width="32.2759" height="32.2759" fill="white" transform="translate(138.724 47.8571)"/>
</clipPath>
<clipPath id="clip1">
<rect width="26.069" height="26.069" fill="white" transform="translate(138.395 24.1638) rotate(-14.2772)"/>
</clipPath>
</defs>
</svg>
