<svg width="200" height="100" viewBox="0 0 200 100" fill="none" xmlns="http://www.w3.org/2000/svg">
<path d="M1 63C1 62.4712 1.32057 61.8083 2.26926 61.0607C3.20667 60.3219 4.62509 59.6129 6.46698 58.9989C10.1403 57.7745 15.2786 57 21 57C26.7214 57 31.8597 57.7745 35.533 58.9989C37.3749 59.6129 38.7933 60.3219 39.7307 61.0607C40.6794 61.8083 41 62.4712 41 63C41 63.5288 40.6794 64.1917 39.7307 64.9393C38.7933 65.6781 37.3749 66.3871 35.533 67.0011C31.8597 68.2255 26.7214 69 21 69C15.2786 69 10.1403 68.2255 6.46698 67.0011C4.62509 66.3871 3.20667 65.6781 2.26926 64.9393C1.32057 64.1917 1 63.5288 1 63Z" stroke="#35D49B" stroke-width="2"/>
<g clip-path="url(#clip0)">
<path d="M1 81C1 80.4712 1.32057 79.8083 2.26926 79.0607C3.20667 78.3219 4.62509 77.6129 6.46698 76.9989C10.1403 75.7745 15.2786 75 21 75C26.7214 75 31.8597 75.7745 35.533 76.9989C37.3749 77.6129 38.7933 78.3219 39.7307 79.0607C40.6794 79.8083 41 80.4712 41 81C41 81.5288 40.6794 82.1917 39.7307 82.9393C38.7933 83.6781 37.3749 84.3871 35.533 85.0011C31.8597 86.2255 26.7214 87 21 87C15.2786 87 10.1403 86.2255 6.46698 85.0011C4.62509 84.3871 3.20667 83.6781 2.26926 82.9393C1.32057 82.1917 1 81.5288 1 81Z" stroke="#35D49B" stroke-width="2"/>
</g>
<g clip-path="url(#clip1)">
<path d="M1 75C1 74.4712 1.32057 73.8083 2.26926 73.0607C3.20667 72.3219 4.62509 71.6129 6.46698 70.9989C10.1403 69.7745 15.2786 69 21 69C26.7214 69 31.8597 69.7745 35.533 70.9989C37.3749 71.6129 38.7933 72.3219 39.7307 73.0607C40.6794 73.8083 41 74.4712 41 75C41 75.5288 40.6794 76.1917 39.7307 76.9393C38.7933 77.6781 37.3749 78.3871 35.533 79.0011C31.8597 80.2255 26.7214 81 21 81C15.2786 81 10.1403 80.2255 6.46698 79.0011C4.62509 78.3871 3.20667 77.6781 2.26926 76.9393C1.32057 76.1917 1 75.5288 1 75Z" stroke="#35D49B" stroke-width="2"/>
</g>
<g clip-path="url(#clip2)">
<path d="M1 69C1 68.4712 1.32057 67.8083 2.26926 67.0607C3.20667 66.3219 4.62509 65.6129 6.46698 64.9989C10.1403 63.7745 15.2786 63 21 63C26.7214 63 31.8597 63.7745 35.533 64.9989C37.3749 65.6129 38.7933 66.3219 39.7307 67.0607C40.6794 67.8083 41 68.4712 41 69C41 69.5288 40.6794 70.1917 39.7307 70.9393C38.7933 71.6781 37.3749 72.3871 35.533 73.0011C31.8597 74.2255 26.7214 75 21 75C15.2786 75 10.1403 74.2255 6.46698 73.0011C4.62509 72.3871 3.20667 71.6781 2.26926 70.9393C1.32057 70.1917 1 69.5288 1 69Z" stroke="#35D49B" stroke-width="2"/>
</g>
<path d="M61 42C61 41.4712 61.3206 40.8083 62.2693 40.0607C63.2067 39.3219 64.6251 38.6129 66.467 37.9989C70.1403 36.7745 75.2786 36 81 36C86.7214 36 91.8597 36.7745 95.533 37.9989C97.3749 38.6129 98.7933 39.3219 99.7307 40.0607C100.679 40.8083 101 41.4712 101 42C101 42.5288 100.679 43.1917 99.7307 43.9393C98.7933 44.6781 97.3749 45.3871 95.533 46.0011C91.8597 47.2255 86.7214 48 81 48C75.2786 48 70.1403 47.2255 66.467 46.0011C64.6251 45.3871 63.2067 44.6781 62.2693 43.9393C61.3206 43.1917 61 42.5288 61 42Z" stroke="#35D49B" stroke-width="2"/>
<g clip-path="url(#clip3)">
<path d="M61 60C61 59.4712 61.3206 58.8083 62.2693 58.0607C63.2067 57.3219 64.6251 56.6129 66.467 55.9989C70.1403 54.7745 75.2786 54 81 54C86.7214 54 91.8597 54.7745 95.533 55.9989C97.3749 56.6129 98.7933 57.3219 99.7307 58.0607C100.679 58.8083 101 59.4712 101 60C101 60.5288 100.679 61.1917 99.7307 61.9393C98.7933 62.6781 97.3749 63.3871 95.533 64.0011C91.8597 65.2255 86.7214 66 81 66C75.2786 66 70.1403 65.2255 66.467 64.0011C64.6251 63.3871 63.2067 62.6781 62.2693 61.9393C61.3206 61.1917 61 60.5288 61 60Z" stroke="#35D49B" stroke-width="2"/>
</g>
<g clip-path="url(#clip4)">
<path d="M61 67C61 66.4712 61.3206 65.8083 62.2693 65.0607C63.2067 64.3219 64.6251 63.6129 66.467 62.9989C70.1403 61.7745 75.2786 61 81 61C86.7214 61 91.8597 61.7745 95.533 62.9989C97.3749 63.6129 98.7933 64.3219 99.7307 65.0607C100.679 65.8083 101 66.4712 101 67C101 67.5288 100.679 68.1917 99.7307 68.9393C98.7933 69.6781 97.3749 70.3871 95.533 71.0011C91.8597 72.2255 86.7214 73 81 73C75.2786 73 70.1403 72.2255 66.467 71.0011C64.6251 70.3871 63.2067 69.6781 62.2693 68.9393C61.3206 68.1917 61 67.5288 61 67Z" stroke="#35D49B" stroke-width="2"/>
</g>
<g clip-path="url(#clip5)">
<path d="M61 74C61 73.4712 61.3206 72.8083 62.2693 72.0607C63.2067 71.3219 64.6251 70.6129 66.467 69.9989C70.1403 68.7745 75.2786 68 81 68C86.7214 68 91.8597 68.7745 95.533 69.9989C97.3749 70.6129 98.7933 71.3219 99.7307 72.0607C100.679 72.8083 101 73.4712 101 74C101 74.5288 100.679 75.1917 99.7307 75.9393C98.7933 76.6781 97.3749 77.3871 95.533 78.0011C91.8597 79.2255 86.7214 80 81 80C75.2786 80 70.1403 79.2255 66.467 78.0011C64.6251 77.3871 63.2067 76.6781 62.2693 75.9393C61.3206 75.1917 61 74.5288 61 74Z" stroke="#35D49B" stroke-width="2"/>
</g>
<g clip-path="url(#clip6)">
<path d="M61 81C61 80.4712 61.3206 79.8083 62.2693 79.0607C63.2067 78.3219 64.6251 77.6129 66.467 76.9989C70.1403 75.7745 75.2786 75 81 75C86.7214 75 91.8597 75.7745 95.533 76.9989C97.3749 77.6129 98.7933 78.3219 99.7307 79.0607C100.679 79.8083 101 80.4712 101 81C101 81.5288 100.679 82.1917 99.7307 82.9393C98.7933 83.6781 97.3749 84.3871 95.533 85.0011C91.8597 86.2255 86.7214 87 81 87C75.2786 87 70.1403 86.2255 66.467 85.0011C64.6251 84.3871 63.2067 83.6781 62.2693 82.9393C61.3206 82.1917 61 81.5288 61 81Z" stroke="#35D49B" stroke-width="2"/>
</g>
<g clip-path="url(#clip7)">
<path d="M61 54C61 53.4712 61.3206 52.8083 62.2693 52.0607C63.2067 51.3219 64.6251 50.6129 66.467 49.9989C70.1403 48.7745 75.2786 48 81 48C86.7214 48 91.8597 48.7745 95.533 49.9989C97.3749 50.6129 98.7933 51.3219 99.7307 52.0607C100.679 52.8083 101 53.4712 101 54C101 54.5288 100.679 55.1917 99.7307 55.9393C98.7933 56.6781 97.3749 57.3871 95.533 58.0011C91.8597 59.2255 86.7214 60 81 60C75.2786 60 70.1403 59.2255 66.467 58.0011C64.6251 57.3871 63.2067 56.6781 62.2693 55.9393C61.3206 55.1917 61 54.5288 61 54Z" stroke="#35D49B" stroke-width="2"/>
</g>
<g clip-path="url(#clip8)">
<path d="M61 48C61 47.4712 61.3206 46.8083 62.2693 46.0607C63.2067 45.3219 64.6251 44.6129 66.467 43.9989C70.1403 42.7745 75.2786 42 81 42C86.7214 42 91.8597 42.7745 95.533 43.9989C97.3749 44.6129 98.7933 45.3219 99.7307 46.0607C100.679 46.8083 101 47.4712 101 48C101 48.5288 100.679 49.1917 99.7307 49.9393C98.7933 50.6781 97.3749 51.3871 95.533 52.0011C91.8597 53.2255 86.7214 54 81 54C75.2786 54 70.1403 53.2255 66.467 52.0011C64.6251 51.3871 63.2067 50.6781 62.2693 49.9393C61.3206 49.1917 61 48.5288 61 48Z" stroke="#35D49B" stroke-width="2"/>
</g>
<path d="M121 21C121 20.4712 121.321 19.8083 122.269 19.0607C123.207 18.3219 124.625 17.6129 126.467 16.9989C130.14 15.7745 135.279 15 141 15C146.721 15 151.86 15.7745 155.533 16.9989C157.375 17.6129 158.793 18.3219 159.731 19.0607C160.679 19.8083 161 20.4712 161 21C161 21.5288 160.679 22.1917 159.731 22.9393C158.793 23.6781 157.375 24.3871 155.533 25.0011C151.86 26.2255 146.721 27 141 27C135.279 27 130.14 26.2255 126.467 25.0011C124.625 24.3871 123.207 23.6781 122.269 22.9393C121.321 22.1917 121 21.5288 121 21Z" stroke="#35D49B" stroke-width="2"/>
<g clip-path="url(#clip9)">
<path d="M121 39C121 38.4712 121.321 37.8083 122.269 37.0607C123.207 36.3219 124.625 35.6129 126.467 34.9989C130.14 33.7745 135.279 33 141 33C146.721 33 151.86 33.7745 155.533 34.9989C157.375 35.6129 158.793 36.3219 159.731 37.0607C160.679 37.8083 161 38.4712 161 39C161 39.5288 160.679 40.1917 159.731 40.9393C158.793 41.6781 157.375 42.3871 155.533 43.0011C151.86 44.2255 146.721 45 141 45C135.279 45 130.14 44.2255 126.467 43.0011C124.625 42.3871 123.207 41.6781 122.269 40.9393C121.321 40.1917 121 39.5288 121 39Z" stroke="#35D49B" stroke-width="2"/>
</g>
<g clip-path="url(#clip10)">
<path d="M121 46C121 45.4712 121.321 44.8083 122.269 44.0607C123.207 43.3219 124.625 42.6129 126.467 41.9989C130.14 40.7745 135.279 40 141 40C146.721 40 151.86 40.7745 155.533 41.9989C157.375 42.6129 158.793 43.3219 159.731 44.0607C160.679 44.8083 161 45.4712 161 46C161 46.5288 160.679 47.1917 159.731 47.9393C158.793 48.6781 157.375 49.3871 155.533 50.0011C151.86 51.2255 146.721 52 141 52C135.279 52 130.14 51.2255 126.467 50.0011C124.625 49.3871 123.207 48.6781 122.269 47.9393C121.321 47.1917 121 46.5288 121 46Z" stroke="#35D49B" stroke-width="2"/>
</g>
<g clip-path="url(#clip11)">
<path d="M121 53C121 52.4712 121.321 51.8083 122.269 51.0607C123.207 50.3219 124.625 49.6129 126.467 48.9989C130.14 47.7745 135.279 47 141 47C146.721 47 151.86 47.7745 155.533 48.9989C157.375 49.6129 158.793 50.3219 159.731 51.0607C160.679 51.8083 161 52.4712 161 53C161 53.5288 160.679 54.1917 159.731 54.9393C158.793 55.6781 157.375 56.3871 155.533 57.0011C151.86 58.2255 146.721 59 141 59C135.279 59 130.14 58.2255 126.467 57.0011C124.625 56.3871 123.207 55.6781 122.269 54.9393C121.321 54.1917 121 53.5288 121 53Z" stroke="#35D49B" stroke-width="2"/>
</g>
<g clip-path="url(#clip12)">
<path d="M121 60C121 59.4712 121.321 58.8083 122.269 58.0607C123.207 57.3219 124.625 56.6129 126.467 55.9989C130.14 54.7745 135.279 54 141 54C146.721 54 151.86 54.7745 155.533 55.9989C157.375 56.6129 158.793 57.3219 159.731 58.0607C160.679 58.8083 161 59.4712 161 60C161 60.5288 160.679 61.1917 159.731 61.9393C158.793 62.6781 157.375 63.3871 155.533 64.0011C151.86 65.2255 146.721 66 141 66C135.279 66 130.14 65.2255 126.467 64.0011C124.625 63.3871 123.207 62.6781 122.269 61.9393C121.321 61.1917 121 60.5288 121 60Z" stroke="#35D49B" stroke-width="2"/>
</g>
<g clip-path="url(#clip13)">
<path d="M121 67C121 66.4712 121.321 65.8083 122.269 65.0607C123.207 64.3219 124.625 63.6129 126.467 62.9989C130.14 61.7745 135.279 61 141 61C146.721 61 151.86 61.7745 155.533 62.9989C157.375 63.6129 158.793 64.3219 159.731 65.0607C160.679 65.8083 161 66.4712 161 67C161 67.5288 160.679 68.1917 159.731 68.9393C158.793 69.6781 157.375 70.3871 155.533 71.0011C151.86 72.2255 146.721 73 141 73C135.279 73 130.14 72.2255 126.467 71.0011C124.625 70.3871 123.207 69.6781 122.269 68.9393C121.321 68.1917 121 67.5288 121 67Z" stroke="#35D49B" stroke-width="2"/>
</g>
<g clip-path="url(#clip14)">
<path d="M121 74C121 73.4712 121.321 72.8083 122.269 72.0607C123.207 71.3219 124.625 70.6129 126.467 69.9989C130.14 68.7745 135.279 68 141 68C146.721 68 151.86 68.7745 155.533 69.9989C157.375 70.6129 158.793 71.3219 159.731 72.0607C160.679 72.8083 161 73.4712 161 74C161 74.5288 160.679 75.1917 159.731 75.9393C158.793 76.6781 157.375 77.3871 155.533 78.0011C151.86 79.2255 146.721 80 141 80C135.279 80 130.14 79.2255 126.467 78.0011C124.625 77.3871 123.207 76.6781 122.269 75.9393C121.321 75.1917 121 74.5288 121 74Z" stroke="#35D49B" stroke-width="2"/>
</g>
<g clip-path="url(#clip15)">
<path d="M121 81C121 80.4712 121.321 79.8083 122.269 79.0607C123.207 78.3219 124.625 77.6129 126.467 76.9989C130.14 75.7745 135.279 75 141 75C146.721 75 151.86 75.7745 155.533 76.9989C157.375 77.6129 158.793 78.3219 159.731 79.0607C160.679 79.8083 161 80.4712 161 81C161 81.5288 160.679 82.1917 159.731 82.9393C158.793 83.6781 157.375 84.3871 155.533 85.0011C151.86 86.2255 146.721 87 141 87C135.279 87 130.14 86.2255 126.467 85.0011C124.625 84.3871 123.207 83.6781 122.269 82.9393C121.321 82.1917 121 81.5288 121 81Z" stroke="#35D49B" stroke-width="2"/>
</g>
<g clip-path="url(#clip16)">
<path d="M121 33C121 32.4712 121.321 31.8083 122.269 31.0607C123.207 30.3219 124.625 29.6129 126.467 28.9989C130.14 27.7745 135.279 27 141 27C146.721 27 151.86 27.7745 155.533 28.9989C157.375 29.6129 158.793 30.3219 159.731 31.0607C160.679 31.8083 161 32.4712 161 33C161 33.5288 160.679 34.1917 159.731 34.9393C158.793 35.6781 157.375 36.3871 155.533 37.0011C151.86 38.2255 146.721 39 141 39C135.279 39 130.14 38.2255 126.467 37.0011C124.625 36.3871 123.207 35.6781 122.269 34.9393C121.321 34.1917 121 33.5288 121 33Z" stroke="#35D49B" stroke-width="2"/>
</g>
<g clip-path="url(#clip17)">
<path d="M121 27C121 26.4712 121.321 25.8083 122.269 25.0607C123.207 24.3219 124.625 23.6129 126.467 22.9989C130.14 21.7745 135.279 21 141 21C146.721 21 151.86 21.7745 155.533 22.9989C157.375 23.6129 158.793 24.3219 159.731 25.0607C160.679 25.8083 161 26.4712 161 27C161 27.5288 160.679 28.1917 159.731 28.9393C158.793 29.6781 157.375 30.3871 155.533 31.0011C151.86 32.2255 146.721 33 141 33C135.279 33 130.14 32.2255 126.467 31.0011C124.625 30.3871 123.207 29.6781 122.269 28.9393C121.321 28.1917 121 27.5288 121 27Z" stroke="#35D49B" stroke-width="2"/>
</g>
<path d="M35.1625 53.5503C38.5625 49.7253 47.4025 42.9678 55.5625 46.5378" stroke="#DC1FFF" stroke-width="2" stroke-dasharray="1.27 1.27"/>
<path d="M96.1625 33.5503C99.5625 29.7253 108.402 22.9678 116.562 26.5378" stroke="#DC1FFF" stroke-width="2" stroke-dasharray="1.27 1.27"/>
<defs>
<clipPath id="clip0">
<rect width="42" height="7" fill="white" transform="translate(0 81)"/>
</clipPath>
<clipPath id="clip1">
<rect width="42" height="7" fill="white" transform="translate(0 75)"/>
</clipPath>
<clipPath id="clip2">
<rect width="42" height="7" fill="white" transform="translate(0 69)"/>
</clipPath>
<clipPath id="clip3">
<rect width="42" height="7" fill="white" transform="translate(60 60)"/>
</clipPath>
<clipPath id="clip4">
<rect width="42" height="7" fill="white" transform="translate(60 67)"/>
</clipPath>
<clipPath id="clip5">
<rect width="42" height="7" fill="white" transform="translate(60 74)"/>
</clipPath>
<clipPath id="clip6">
<rect width="42" height="7" fill="white" transform="translate(60 81)"/>
</clipPath>
<clipPath id="clip7">
<rect width="42" height="7" fill="white" transform="translate(60 54)"/>
</clipPath>
<clipPath id="clip8">
<rect width="42" height="7" fill="white" transform="translate(60 48)"/>
</clipPath>
<clipPath id="clip9">
<rect width="42" height="7" fill="white" transform="translate(120 39)"/>
</clipPath>
<clipPath id="clip10">
<rect width="42" height="7" fill="white" transform="translate(120 46)"/>
</clipPath>
<clipPath id="clip11">
<rect width="42" height="7" fill="white" transform="translate(120 53)"/>
</clipPath>
<clipPath id="clip12">
<rect width="42" height="7" fill="white" transform="translate(120 60)"/>
</clipPath>
<clipPath id="clip13">
<rect width="42" height="7" fill="white" transform="translate(120 67)"/>
</clipPath>
<clipPath id="clip14">
<rect width="42" height="7" fill="white" transform="translate(120 74)"/>
</clipPath>
<clipPath id="clip15">
<rect width="42" height="7" fill="white" transform="translate(120 81)"/>
</clipPath>
<clipPath id="clip16">
<rect width="42" height="7" fill="white" transform="translate(120 33)"/>
</clipPath>
<clipPath id="clip17">
<rect width="42" height="7" fill="white" transform="translate(120 27)"/>
</clipPath>
</defs>
</svg>
