<svg width="94" height="94" viewBox="0 0 94 94" fill="none" xmlns="http://www.w3.org/2000/svg">
<g clip-path="url(#clip0)">
<path d="M68.1871 22.8197C66.7378 18.3429 63.9072 14.4403 60.1018 11.6724C56.2964 8.90445 51.7118 7.41345 47.0062 7.41345C42.3005 7.41345 37.7159 8.90445 33.9105 11.6724C30.1051 14.4403 27.2745 18.3429 25.8252 22.8197C22.4988 23.5539 19.3717 25.0025 16.6606 27.0651C13.9495 29.1278 11.7193 31.7552 10.1245 34.7653C8.5296 37.7754 7.60823 41.0963 7.42419 44.4978C7.24014 47.8994 7.79782 51.3003 9.05858 54.4649C10.3193 57.6295 12.2531 60.4822 14.7257 62.8254C17.1984 65.1685 20.151 66.946 23.3788 68.0348C26.6066 69.1236 30.0326 69.4976 33.4193 69.131C36.8061 68.7643 40.0726 67.6657 42.9926 65.9113C43.0833 64.9301 43.1534 63.8953 43.2029 62.8068C40.6722 64.6409 37.7646 65.8877 34.6914 66.4566C31.6183 67.0255 28.457 66.9021 25.4375 66.0955C22.418 65.2889 19.6163 63.8193 17.2363 61.7937C14.8562 59.768 12.9577 57.2373 11.6788 54.3856C10.3999 51.5338 9.77279 48.4329 9.84312 45.3083C9.91346 42.1838 10.6795 39.1142 12.0854 36.3229C13.4913 33.5316 15.5018 31.0889 17.9706 29.1724C20.4394 27.2559 23.3044 25.9139 26.3571 25.2439L27.7423 24.9347L28.1752 23.5866C29.4618 19.6046 31.9776 16.133 35.3611 13.6705C38.7445 11.208 42.8215 9.88148 47.0062 9.88148C51.1908 9.88148 55.2678 11.208 58.6513 13.6705C62.0347 16.133 64.5505 19.6046 65.8371 23.5866L66.27 24.9347L67.6552 25.2439C70.7016 25.9219 73.5589 27.2694 76.0197 29.1889C78.4806 31.1083 80.4833 33.5515 81.8825 36.3412C83.2818 39.1308 84.0425 42.197 84.1094 45.3171C84.1764 48.4373 83.5479 51.5333 82.2696 54.3804C80.9913 57.2275 79.0953 59.7543 76.719 61.7776C74.3428 63.8008 71.5459 65.2697 68.5314 66.0777C65.5169 66.8857 62.3604 67.0124 59.2908 66.4488C56.2212 65.8852 53.3156 64.6454 50.7847 62.8192C50.8342 63.9076 50.9043 64.9424 50.995 65.9237C53.9144 67.6684 57.1778 68.7586 60.5597 69.1191C63.9417 69.4795 67.3615 69.1016 70.5831 68.0114C73.8048 66.9212 76.7513 65.1447 79.2194 62.8046C81.6874 60.4645 83.6181 57.6166 84.8781 54.4575C86.1381 51.2985 86.6974 47.9035 86.5173 44.5072C86.3373 41.1109 85.4221 37.7942 83.8352 34.786C82.2482 31.7779 80.0272 29.1501 77.3255 27.0841C74.6238 25.0181 71.5059 23.5632 68.1871 22.8197Z" fill="url(#paint0_linear)"/>
<path d="M44.5263 43.1286V40.1602L32.8382 32.3681C32.566 32.2072 32.2426 32.1566 31.9343 32.2268C31.626 32.2969 31.3563 32.4824 31.1806 32.7453C31.0048 33.0081 30.9364 33.3282 30.9894 33.6399C31.0423 33.9516 31.2126 34.2312 31.4653 34.4212L44.5263 43.1286Z" fill="url(#paint1_linear)"/>
<path d="M27.2105 45.7632C26.9412 45.7623 26.679 45.8494 26.4637 46.0111C26.2483 46.1729 26.0917 46.4005 26.0175 46.6594C25.9434 46.9183 25.9557 47.1943 26.0527 47.4455C26.1497 47.6968 26.3261 47.9095 26.555 48.0513L44.5263 59.2819V56.3629L27.8661 45.9487C27.6692 45.8267 27.4421 45.7624 27.2105 45.7632Z" fill="url(#paint2_linear)"/>
<path d="M48.2368 60.0735L68.6447 48.0637C68.8769 47.926 69.0576 47.7161 69.1593 47.4661C69.2611 47.216 69.2782 46.9396 69.2081 46.6789C69.138 46.4182 68.9846 46.1876 68.7712 46.0223C68.5578 45.8569 68.2962 45.766 68.0263 45.7632C67.8043 45.7633 67.5864 45.8231 67.3955 45.9364L48.2368 57.204V43.9574L62.5224 34.4337C62.6672 34.3481 62.793 34.2339 62.8921 34.098C62.9912 33.9621 63.0616 33.8075 63.0989 33.6435C63.1363 33.4795 63.1397 33.3096 63.1092 33.1442C63.0786 32.9788 63.0146 32.8213 62.9211 32.6815C62.8276 32.5417 62.7066 32.4224 62.5654 32.331C62.4242 32.2395 62.2659 32.1778 62.1001 32.1497C61.9342 32.1215 61.7644 32.1274 61.601 32.1671C61.4375 32.2068 61.2839 32.2795 61.1495 32.3806L48.2368 40.9766V22.2632C48.2368 21.9352 48.1065 21.6206 47.8746 21.3886C47.6426 21.1567 47.328 21.0264 47 21.0264C46.672 21.0264 46.3574 21.1567 46.1254 21.3886C45.8935 21.6206 45.7632 21.9352 45.7632 22.2632V60.6053C45.4416 81.7182 37.1053 86.579 37.1053 86.579H40.8158C41.8855 85.3577 42.811 84.0172 43.5739 82.584C45.2067 79.4732 46.3735 76.1393 47.0371 72.6893C47.7007 76.1393 48.8675 79.4732 50.5003 82.584C51.2399 84.0135 52.1404 85.3539 53.1842 86.579H56.8947C56.8947 86.579 48.4224 81.6316 48.2368 60.0735Z" fill="url(#paint3_linear)"/>
</g>
<defs>
<linearGradient id="paint0_linear" x1="-2.70571" y1="77.1559" x2="118.006" y2="-77.3308" gradientUnits="userSpaceOnUse">
<stop stop-color="#DC1FFF"/>
<stop offset="0.5" stop-color="#01F39D"/>
<stop offset="1" stop-color="#55A2FF"/>
</linearGradient>
<linearGradient id="paint1_linear" x1="29.2433" y1="44.5229" x2="50.7332" y2="17.8794" gradientUnits="userSpaceOnUse">
<stop stop-color="#DC1FFF"/>
<stop offset="0.5" stop-color="#01F39D"/>
<stop offset="1" stop-color="#55A2FF"/>
</linearGradient>
<linearGradient id="paint2_linear" x1="23.6031" y1="61.006" x2="49.4834" y2="25.481" gradientUnits="userSpaceOnUse">
<stop stop-color="#DC1FFF"/>
<stop offset="0.5" stop-color="#01F39D"/>
<stop offset="1" stop-color="#55A2FF"/>
</linearGradient>
<linearGradient id="paint3_linear" x1="33.0057" y1="94.9391" x2="137.244" y2="43.8232" gradientUnits="userSpaceOnUse">
<stop stop-color="#DC1FFF"/>
<stop offset="0.5" stop-color="#01F39D"/>
<stop offset="1" stop-color="#55A2FF"/>
</linearGradient>
<clipPath id="clip0">
<rect width="79.1579" height="79.1579" fill="white" transform="translate(7.42105 7.42102)"/>
</clipPath>
</defs>
</svg>
