<svg width="94" height="94" viewBox="0 0 94 94" fill="none" xmlns="http://www.w3.org/2000/svg">
<g clip-path="url(#clip0)">
<path d="M74.3384 81.3261C74.2779 81.1781 68.2049 66.8756 48.3182 66.3219V52.8443C56.745 52.7053 62.7193 50.3358 66.0349 45.7603C71.0273 38.8758 68.1086 29.7114 67.983 29.3236L67.6423 28.2834L66.5931 28.6018C55.7631 31.8703 50.6765 37.2707 48.3182 42.0547V39.4811C48.3182 33.3924 48.3182 19.1347 26.9832 11.4611L26.0618 11.1316L25.6112 12.0014C25.4565 12.2996 21.8652 19.3791 25.2301 27.1513C28.113 33.8116 35.1253 38.7884 46.0764 41.947V66.3219C26.1313 66.842 19.7221 81.1602 19.657 81.3059L18.989 82.8684H74.9639L74.3384 81.3261ZM66.1313 31.0969C66.6917 33.5628 67.6176 39.7725 64.2123 44.4578C61.363 48.3809 56.1016 50.4501 48.5647 50.6205C48.4078 47.3632 49.2552 36.6318 66.1313 31.0969ZM27.2993 26.2882C24.9992 21.0044 26.4474 15.9447 27.2141 13.9383C46.0786 21.1389 46.0764 33.4933 46.0764 39.4833V39.6089C36.1767 36.6475 29.8594 32.1707 27.2993 26.2882ZM22.5803 80.6267C24.8333 77.0376 31.7963 68.5143 47.1614 68.5143C62.7126 68.5143 69.3572 77.0398 71.4667 80.6267H22.5803Z" fill="url(#paint0_linear)"/>
</g>
<defs>
<linearGradient id="paint0_linear" x1="11.8503" y1="92.0173" x2="151.802" y2="-17.1843" gradientUnits="userSpaceOnUse">
<stop stop-color="#DC1FFF"/>
<stop offset="0.5" stop-color="#01F39D"/>
<stop offset="1" stop-color="#55A2FF"/>
</linearGradient>
<clipPath id="clip0">
<rect width="71.7368" height="71.7368" fill="white" transform="translate(11.1316 11.1316)"/>
</clipPath>
</defs>
</svg>
