<svg width="131" height="29" viewBox="0 0 131 29" fill="none" xmlns="http://www.w3.org/2000/svg">
<path d="M44.8725 16.0061C44.8725 16.3843 44.8234 16.7257 44.7251 17.0302C44.6318 17.3298 44.5066 17.595 44.3494 17.8259C44.1922 18.0567 44.008 18.2532 43.7968 18.4153C43.5856 18.5774 43.367 18.71 43.1411 18.8132C42.9151 18.9163 42.6843 18.9924 42.4485 19.0416C42.2177 19.0907 41.9991 19.1152 41.7928 19.1152H34.403V17.1996H41.7928C42.1612 17.1996 42.4461 17.0916 42.6474 16.8755C42.8537 16.6593 42.9569 16.3695 42.9569 16.0061C42.9569 15.8292 42.9299 15.6672 42.8758 15.5198C42.8218 15.3725 42.7432 15.2447 42.6401 15.1367C42.5418 15.0286 42.419 14.9451 42.2717 14.8862C42.1292 14.8272 41.9696 14.7978 41.7928 14.7978H37.3869C37.0775 14.7978 36.7435 14.7437 36.3849 14.6357C36.0264 14.5227 35.6924 14.3434 35.3829 14.0978C35.0784 13.8523 34.823 13.5305 34.6167 13.1327C34.4153 12.7348 34.3146 12.2486 34.3146 11.6739C34.3146 11.0992 34.4153 10.6154 34.6167 10.2224C34.823 9.82459 35.0784 9.50287 35.3829 9.25728C35.6924 9.00678 36.0264 8.8275 36.3849 8.71944C36.7435 8.60647 37.0775 8.54998 37.3869 8.54998H43.9073V10.4656H37.3869C37.0234 10.4656 36.7386 10.5761 36.5323 10.7971C36.3309 11.0182 36.2302 11.3104 36.2302 11.6739C36.2302 12.0423 36.3309 12.3345 36.5323 12.5506C36.7386 12.7618 37.0234 12.8674 37.3869 12.8674H41.7928H41.8075C42.0138 12.8724 42.2324 12.9018 42.4632 12.9559C42.6941 13.005 42.9225 13.0836 43.1484 13.1916C43.3793 13.2997 43.5979 13.4372 43.8042 13.6042C44.0105 13.7663 44.1922 13.9628 44.3494 14.1936C44.5115 14.4245 44.6392 14.6897 44.7325 14.9893C44.8258 15.289 44.8725 15.6279 44.8725 16.0061ZM59.6647 14.842C59.6647 15.4854 59.5542 16.0773 59.3332 16.6176C59.1121 17.1579 58.8052 17.6245 58.4122 18.0175C58.0193 18.4104 57.5526 18.7174 57.0123 18.9384C56.477 19.1545 55.8925 19.2626 55.2588 19.2626H52.6654C52.0318 19.2626 51.4448 19.1545 50.9045 18.9384C50.3642 18.7174 49.8976 18.4104 49.5047 18.0175C49.1117 17.6245 48.8023 17.1579 48.5764 16.6176C48.3553 16.0773 48.2448 15.4854 48.2448 14.842V12.8232C48.2448 12.1847 48.3553 11.5953 48.5764 11.055C48.8023 10.5098 49.1117 10.0432 49.5047 9.65514C49.8976 9.26219 50.3642 8.95521 50.9045 8.73418C51.4448 8.51315 52.0318 8.40263 52.6654 8.40263H55.2588C55.8925 8.40263 56.477 8.51315 57.0123 8.73418C57.5526 8.95521 58.0193 9.26219 58.4122 9.65514C58.8052 10.0432 59.1121 10.5098 59.3332 11.055C59.5542 11.5953 59.6647 12.1847 59.6647 12.8232V14.842ZM57.7491 12.8232C57.7491 12.445 57.6877 12.1037 57.5649 11.7991C57.447 11.4897 57.2776 11.2269 57.0566 11.0108C56.8404 10.7898 56.5777 10.6203 56.2682 10.5024C55.9637 10.3796 55.6272 10.3182 55.2588 10.3182H52.6654C52.2921 10.3182 51.9508 10.3796 51.6413 10.5024C51.3368 10.6203 51.074 10.7898 50.853 11.0108C50.6319 11.2269 50.46 11.4897 50.3372 11.7991C50.2194 12.1037 50.1604 12.445 50.1604 12.8232V14.842C50.1604 15.2202 50.2194 15.564 50.3372 15.8735C50.46 16.178 50.6319 16.4408 50.853 16.6618C51.074 16.8779 51.3368 17.0474 51.6413 17.1702C51.9508 17.2881 52.2921 17.347 52.6654 17.347H55.2441C55.6174 17.347 55.9563 17.2881 56.2608 17.1702C56.5703 17.0474 56.8355 16.8779 57.0566 16.6618C57.2776 16.4408 57.447 16.178 57.5649 15.8735C57.6877 15.564 57.7491 15.2202 57.7491 14.842V12.8232ZM73.3739 19.1152H64.6358C64.4983 19.1152 64.3706 19.0907 64.2527 19.0416C64.1348 18.9924 64.0317 18.9261 63.9433 18.8426C63.8598 18.7542 63.7935 18.6511 63.7443 18.5332C63.6952 18.4153 63.6707 18.2876 63.6707 18.1501V8.54998H65.5863V17.1996H73.3739V19.1152Z" fill="#FFFCFF"/>
<path d="M87.4515 12.1012C87.4515 12.5384 87.3974 12.9288 87.2894 13.2727C87.1813 13.6165 87.034 13.921 86.8473 14.1863C86.6656 14.4466 86.4544 14.6701 86.2137 14.8567C85.973 15.0434 85.7201 15.1981 85.4548 15.3209C85.1945 15.4388 84.9293 15.5247 84.6591 15.5787C84.3939 15.6328 84.1434 15.6598 83.9076 15.6598L87.9083 19.1152H84.9465L80.9532 15.6598H79.5754V13.7442H83.9076C84.1483 13.7245 84.3669 13.6754 84.5633 13.5968C84.7647 13.5133 84.9366 13.4028 85.0791 13.2653C85.2264 13.1278 85.3394 12.9632 85.418 12.7717C85.4966 12.5752 85.5359 12.3517 85.5359 12.1012V10.8929C85.5359 10.7848 85.5211 10.7038 85.4917 10.6498C85.4671 10.5908 85.4327 10.5491 85.3885 10.5245C85.3492 10.4951 85.305 10.4779 85.2559 10.4729C85.2117 10.468 85.1699 10.4656 85.1307 10.4656H78.8092V19.1152H76.8936V9.51515C76.8936 9.38253 76.9181 9.25728 76.9673 9.1394C77.0164 9.02152 77.0827 8.91837 77.1662 8.82996C77.2546 8.74154 77.3577 8.67278 77.4756 8.62366C77.5935 8.57454 77.7212 8.54998 77.8588 8.54998H85.1307C85.558 8.54998 85.919 8.62857 86.2137 8.78575C86.5084 8.93802 86.7466 9.13203 86.9284 9.3678C87.115 9.59865 87.2476 9.84915 87.3262 10.1193C87.4097 10.3894 87.4515 10.6424 87.4515 10.8782V12.1012ZM101.853 19.1152H99.9376V16.5218H93.2036V19.1152H91.288V13.8326C91.288 13.0615 91.4206 12.3517 91.6858 11.7034C91.9511 11.055 92.3194 10.4975 92.791 10.0309C93.2625 9.56427 93.82 9.2008 94.4634 8.94047C95.1069 8.68015 95.8093 8.54998 96.5706 8.54998H100.888C101.021 8.54998 101.146 8.57454 101.264 8.62366C101.382 8.67278 101.485 8.74154 101.573 8.82996C101.662 8.91837 101.73 9.02152 101.78 9.1394C101.829 9.25728 101.853 9.38253 101.853 9.51515V19.1152ZM93.2036 14.6062H99.9376V10.4656H96.5706C96.5117 10.4656 96.3864 10.4754 96.1948 10.4951C96.0082 10.5098 95.7896 10.5515 95.5391 10.6203C95.2935 10.6891 95.0332 10.7947 94.7581 10.9371C94.4831 11.0796 94.2301 11.276 93.9993 11.5265C93.7684 11.777 93.5769 12.0914 93.4246 12.4696C93.2772 12.8429 93.2036 13.2972 93.2036 13.8326V14.6062ZM115.238 9.12466C115.312 9.29658 115.334 9.47831 115.305 9.66987C115.275 9.85652 115.196 10.0162 115.069 10.1488L108.747 17.1996H115.223V19.1152H106.589C106.402 19.1152 106.228 19.0637 106.065 18.9605C105.908 18.8525 105.79 18.7125 105.712 18.5406C105.628 18.3686 105.601 18.1894 105.631 18.0027C105.665 17.8161 105.744 17.654 105.867 17.5164L112.203 10.4656H105.712V8.54998H114.361C114.548 8.54998 114.72 8.60401 114.877 8.71207C115.039 8.81522 115.16 8.95275 115.238 9.12466ZM129.64 12.1012C129.64 12.5384 129.586 12.9288 129.478 13.2727C129.37 13.6165 129.222 13.921 129.036 14.1863C128.854 14.4466 128.643 14.6701 128.402 14.8567C128.162 15.0434 127.909 15.1981 127.643 15.3209C127.383 15.4388 127.118 15.5247 126.848 15.5787C126.582 15.6328 126.332 15.6598 126.096 15.6598L130.097 19.1152H127.135L123.142 15.6598H121.764V13.7442H126.096C126.337 13.7245 126.555 13.6754 126.752 13.5968C126.953 13.5133 127.125 13.4028 127.268 13.2653C127.415 13.1278 127.528 12.9632 127.606 12.7717C127.685 12.5752 127.724 12.3517 127.724 12.1012V10.8929C127.724 10.7848 127.71 10.7038 127.68 10.6498C127.656 10.5908 127.621 10.5491 127.577 10.5245C127.538 10.4951 127.494 10.4779 127.444 10.4729C127.4 10.468 127.358 10.4656 127.319 10.4656H120.998V19.1152H119.082V9.51515C119.082 9.38253 119.107 9.25728 119.156 9.1394C119.205 9.02152 119.271 8.91837 119.355 8.82996C119.443 8.74154 119.546 8.67278 119.664 8.62366C119.782 8.57454 119.91 8.54998 120.047 8.54998H127.319C127.746 8.54998 128.107 8.62857 128.402 8.78575C128.697 8.93802 128.935 9.13203 129.117 9.3678C129.304 9.59865 129.436 9.84915 129.515 10.1193C129.598 10.3894 129.64 10.6424 129.64 10.8782V12.1012Z" fill="#B1A7D8"/>
<circle cx="14.0505" cy="14.0505" r="13.7078" stroke="url(#paint0_linear)" stroke-width="0.68539"/>
<circle cx="15.4417" cy="14.0506" r="13.7078" transform="rotate(-180 15.4417 14.0506)" stroke="url(#paint1_linear)" stroke-width="0.68539"/>
<path d="M8.43615 6.8584H22.7223C22.987 6.8584 23.1519 7.14551 23.0186 7.37412L21.0181 10.8034C20.9567 10.9088 20.8439 10.9736 20.7219 10.9736H11.8539C11.7334 10.9736 11.6218 11.0368 11.5598 11.1401L10.9425 12.1689C10.8054 12.3974 10.97 12.6882 11.2366 12.6882H20.714C20.8402 12.6882 20.9562 12.7575 21.016 12.8686L23.2292 16.9788C23.2853 17.083 23.2837 17.2088 23.225 17.3116L20.6747 21.7746C20.6136 21.8815 20.5 21.9474 20.3769 21.9474H6.09262C5.82606 21.9474 5.66142 21.6566 5.79856 21.428L7.44463 18.6846C7.50661 18.5813 7.61824 18.5181 7.7387 18.5181H16.5917C16.7216 18.5181 16.8404 18.4447 16.8985 18.3285L17.5843 16.9568C17.6983 16.7288 17.5325 16.4605 17.2776 16.4605H8.42202C8.30294 16.4605 8.19237 16.3987 8.12996 16.2973L5.59004 12.1699C5.52618 12.0662 5.52218 11.9363 5.57951 11.8288L8.13357 7.03995C8.19317 6.9282 8.3095 6.8584 8.43615 6.8584Z" fill="url(#paint2_linear)"/>
<defs>
<linearGradient id="paint0_linear" x1="-3.58381" y1="31.6848" x2="52.9345" y2="-24.8334" gradientUnits="userSpaceOnUse">
<stop stop-color="#DC1FFF"/>
<stop offset="0.5" stop-color="#01F39D"/>
<stop offset="1" stop-color="#55A2FF"/>
</linearGradient>
<linearGradient id="paint1_linear" x1="-2.19257" y1="31.6849" x2="54.3257" y2="-24.8334" gradientUnits="userSpaceOnUse">
<stop stop-color="#DC1FFF"/>
<stop offset="0.5" stop-color="#01F39D"/>
<stop offset="1" stop-color="#55A2FF"/>
</linearGradient>
<linearGradient id="paint2_linear" x1="3.21271" y1="23.8718" x2="33.1419" y2="-11.4992" gradientUnits="userSpaceOnUse">
<stop stop-color="#DC1FFF"/>
<stop offset="0.5" stop-color="#01F39D"/>
<stop offset="1" stop-color="#55A2FF"/>
</linearGradient>
</defs>
</svg>
